<svg width="17" height="14" viewBox="0 0 17 14" fill="none" xmlns="http://www.w3.org/2000/svg">
<g id="Group 59236">
<path id="Vector" d="M12.5098 3.86169C12.8946 4.76564 13.1086 5.76055 13.1086 6.80536C13.1086 7.73266 12.9393 8.62036 12.6324 9.44049L12.9607 9.97344C13.3783 9.0016 13.611 7.93066 13.611 6.8055C13.611 5.56592 13.3298 4.39155 12.8287 3.34375L12.5098 3.86169Z" fill="#FF7C00"/>
<path id="Vector_2" d="M13.9098 1.80469L13.6104 2.29079C14.3731 3.62357 14.8122 5.16819 14.8122 6.81534C14.8122 8.35337 14.4302 9.80245 13.7586 11.0727L14.0617 11.5649C14.8572 10.1639 15.3148 8.54316 15.3148 6.81541C15.3149 4.9796 14.7999 3.26335 13.9098 1.80496L13.9098 1.80469Z" fill="#FF7C00"/>
<path id="Vector_3" d="M14.7877 0L14.5 0.466946C15.7557 2.25997 16.4969 4.44619 16.4969 6.80495C16.4969 9.05926 15.8212 11.1568 14.6653 12.9033L14.9544 13.3726C15.23 12.9737 15.4807 12.5564 15.7053 12.123L16.4082 10.4565C16.7896 9.30822 16.9993 8.08114 16.9993 6.80482C16.9995 4.26048 16.1766 1.90734 14.7877 0.000137282L14.7877 0Z" fill="#FF7C00"/>
<path id="Vector_4" d="M11.1349 5.56463V1.87007C11.1349 1.43131 10.7816 1.07422 10.3473 1.07422C9.92403 1.07422 9.5801 1.41439 9.56297 1.83799C8.59741 2.59332 6.3635 4.06562 3.50942 4.18433H0.880745C0.395177 4.18433 0 4.58366 0 5.07447V8.53794C0 9.02875 0.395177 9.42808 0.880745 9.42808H1.08782L2.96441 14.0014L3.98149 13.5235C4.38064 13.3359 4.58148 12.8748 4.44874 12.4506L3.9677 10.9141C3.95044 10.8591 3.97712 10.8006 4.02969 10.7779C4.17199 10.7168 4.28044 10.6026 4.33526 10.4565C4.39021 10.3105 4.38384 10.1523 4.31747 10.0111L4.06274 9.46873C6.65094 9.73728 8.66084 11.0686 9.56306 11.7743C9.58019 12.1979 9.92399 12.5381 10.3474 12.5381C10.7818 12.5381 11.135 12.181 11.135 11.7422L11.1347 7.53979C11.2364 7.47393 11.3208 7.38633 11.3891 7.28895C11.6949 6.85181 11.6949 6.25221 11.3891 5.81518C11.3208 5.71766 11.2365 5.63007 11.1347 5.5642L11.1349 5.56463ZM2.31285 7.95015H1.45439V7.44231H2.31285V7.95015ZM2.31285 7.06028H1.45439V6.55244H2.31285V7.06028ZM2.31285 6.17041H1.45439V5.66257H2.31285V6.17041ZM9.56019 11.14C8.46637 10.3429 6.40187 9.12445 3.81349 8.93813L3.80513 8.92042H3.76717V4.67883C6.37739 4.50405 8.45974 3.27428 9.56007 2.47253L9.56019 11.14Z" fill="#FF7C00"/>
</g>
</svg>
