<svg width="24" height="24" viewBox="0 0 24 24" fill="none" xmlns="http://www.w3.org/2000/svg">
<path id="Vector" d="M2.66667 24C1.93334 24 1.30534 23.7387 0.782669 23.216C0.260002 22.6933 -0.000886625 22.0658 2.26372e-06 21.3333V8C2.26372e-06 7.26667 0.261336 6.63867 0.784002 6.116C1.30667 5.59333 1.93422 5.33245 2.66667 5.33333H5.33333V2.66667C5.33333 1.93334 5.59467 1.30534 6.11733 0.782669C6.64 0.260002 7.26756 -0.000886625 8 2.26372e-06H16C16.7333 2.26372e-06 17.3613 0.261336 17.884 0.784002C18.4067 1.30667 18.6676 1.93422 18.6667 2.66667V10.6667H21.3333C22.0667 10.6667 22.6947 10.928 23.2173 11.4507C23.74 11.9733 24.0009 12.6009 24 13.3333V21.3333C24 22.0667 23.7387 22.6947 23.216 23.2173C22.6933 23.74 22.0658 24.0009 21.3333 24H13.3333V18.6667H10.6667V24H2.66667ZM2.66667 21.3333H5.33333V18.6667H2.66667V21.3333ZM2.66667 16H5.33333V13.3333H2.66667V16ZM2.66667 10.6667H5.33333V8H2.66667V10.6667ZM8 16H10.6667V13.3333H8V16ZM8 10.6667H10.6667V8H8V10.6667ZM8 5.33333H10.6667V2.66667H8V5.33333ZM13.3333 16H16V13.3333H13.3333V16ZM13.3333 10.6667H16V8H13.3333V10.6667ZM13.3333 5.33333H16V2.66667H13.3333V5.33333ZM18.6667 21.3333H21.3333V18.6667H18.6667V21.3333ZM18.6667 16H21.3333V13.3333H18.6667V16Z" fill="#000"/>
</svg>
