<svg width="20" height="14" viewBox="0 0 20 14" fill="none" xmlns="http://www.w3.org/2000/svg">
<g id="Vector">
<path d="M0.667318 7.26047V5.76591C0.667318 5.55375 0.844324 5.38165 1.06257 5.38165L16.0398 5.38151V2.12588C16.0398 1.56048 15.5666 1.10048 14.985 1.10048C14.4035 1.10048 13.9303 1.56048 13.9303 2.12588C13.9303 2.33803 13.7533 2.51014 13.5351 2.51014C13.3168 2.51014 13.1398 2.33805 13.1398 2.12588C13.1398 1.13674 13.9675 0.332031 14.985 0.332031C16.0024 0.332031 16.8301 1.13674 16.8301 2.12588V5.38151H18.9387C19.157 5.38151 19.334 5.55359 19.334 5.76577V7.26033C19.334 9.25797 17.8564 10.9262 15.9079 11.287V11.7441C15.9079 12.8035 15.0214 13.6654 13.9317 13.6654L6.28932 13.6654C5.19961 13.6654 4.31313 12.8036 4.31313 11.7441V11.3219C2.25707 11.0502 0.667389 9.33245 0.667389 7.2604L0.667318 7.26047ZM6.28932 12.8968L13.9317 12.8968C14.5855 12.8968 15.1174 12.3798 15.1174 11.7441V11.3596L5.10378 11.3596L5.10364 11.7441C5.10364 12.3798 5.63552 12.8968 6.28932 12.8968ZM4.88382 10.5911L15.1175 10.5911C17.0066 10.5911 18.5435 9.09696 18.5435 7.2604V6.15009L1.45775 6.15009V7.2604C1.45761 9.09693 2.9945 10.5911 4.88361 10.5911H4.88382Z" fill="#FB9400"/>
<path d="M0.667318 7.26047V5.76591C0.667318 5.55375 0.844324 5.38165 1.06257 5.38165L16.0398 5.38151V2.12588C16.0398 1.56048 15.5666 1.10048 14.985 1.10048C14.4035 1.10048 13.9303 1.56048 13.9303 2.12588C13.9303 2.33803 13.7533 2.51014 13.5351 2.51014C13.3168 2.51014 13.1398 2.33805 13.1398 2.12588C13.1398 1.13674 13.9675 0.332031 14.985 0.332031C16.0024 0.332031 16.8301 1.13674 16.8301 2.12588V5.38151H18.9387C19.157 5.38151 19.334 5.55359 19.334 5.76577V7.26033C19.334 9.25797 17.8564 10.9262 15.9079 11.287V11.7441C15.9079 12.8035 15.0214 13.6654 13.9317 13.6654L6.28932 13.6654C5.19961 13.6654 4.31313 12.8036 4.31313 11.7441V11.3219C2.25707 11.0502 0.667389 9.33245 0.667389 7.2604L0.667318 7.26047ZM6.28932 12.8968L13.9317 12.8968C14.5855 12.8968 15.1174 12.3798 15.1174 11.7441V11.3596L5.10378 11.3596L5.10364 11.7441C5.10364 12.3798 5.63552 12.8968 6.28932 12.8968ZM4.88382 10.5911L15.1175 10.5911C17.0066 10.5911 18.5435 9.09696 18.5435 7.2604V6.15009L1.45775 6.15009V7.2604C1.45761 9.09693 2.9945 10.5911 4.88361 10.5911H4.88382Z" stroke="#FB9400"/>
</g>
</svg>
