<svg width="20" height="12" viewBox="0 0 20 12" fill="none" xmlns="http://www.w3.org/2000/svg">
<path id="Vector" d="M17.9344 5.37786V1.88443C17.9344 0.862004 17.1125 0.03125 16.0798 0.03125H3.91984C2.90831 0.03125 2.08641 0.862004 2.08641 1.88443V5.37786C0.885088 5.78263 0 6.91156 0 8.25362V11.4276C0 11.747 0.252848 12.0027 0.569047 12.0027C0.885103 12.0027 1.13809 11.7472 1.13809 11.4276V10.469H18.8617V11.4276C18.8617 11.747 19.1145 12.0027 19.4307 12.0027C19.7468 12.0027 19.9998 11.7472 19.9998 11.4276L19.9996 8.25362C20.0207 6.9116 19.1355 5.78263 17.9342 5.37786H17.9344ZM3.91988 1.18149H16.0798C16.4591 1.18149 16.7753 1.50095 16.7753 1.88443V5.20741H15.6162V3.41813C15.6162 2.84296 15.1525 2.37433 14.5835 2.37433H11.5699C11.0009 2.37433 10.5372 2.84296 10.5372 3.41813V5.20741H9.48349V3.41813C9.48349 2.84296 9.01986 2.37433 8.45081 2.37433H5.4162C4.84716 2.37433 4.38352 2.84296 4.38352 3.41813V5.20741H3.22439V1.88443C3.22439 1.50108 3.54044 1.18149 3.91984 1.18149H3.91988ZM14.4992 5.20745H11.6752V3.54594H14.4781V5.20745H14.4992ZM8.34551 5.20745H5.54261V3.54594H8.34551V5.20745ZM1.13806 9.31862V8.27481C1.13806 7.23101 1.98096 6.37899 3.01368 6.37899H17.0071C18.0398 6.37899 18.8827 7.23097 18.8827 8.27481V9.31862H1.13806Z" fill="#FB9400"/>
</svg>
