<svg width="20" height="21" viewBox="0 0 20 21" fill="none" xmlns="http://www.w3.org/2000/svg">
<g id="Group 58897" clip-path="url(#clip0_3737_5294)">
<g id="Page-1">
<g id="vecteezy_calendar-icon-vector_5988959">
<g id="Group">
<path id="Fill-1" fill-rule="evenodd" clip-rule="evenodd" d="M3.61082 2.30828C2.33516 2.30828 1.29733 3.3455 1.29733 4.62039V17.3913C1.29733 18.6662 2.33516 19.7034 3.61082 19.7034H16.3893C17.6648 19.7034 18.7027 18.6662 18.7027 17.3913V4.62039C18.7027 3.3455 17.6648 2.30828 16.3893 2.30828H3.61082ZM16.3893 21H3.61082C1.6198 21 0 19.3811 0 17.3913V4.62039C0 2.63057 1.6198 1.01172 3.61082 1.01172H16.3893C18.3803 1.01172 20 2.63057 20 4.62039V17.3913C20 19.3811 18.3803 21 16.3893 21Z" fill="#B8B6B6"/>
<path id="Fill-2" fill-rule="evenodd" clip-rule="evenodd" d="M18.8152 6.51923H0.648673C0.290432 6.51923 0 6.22897 0 5.87095C0 5.51293 0.290432 5.22266 0.648673 5.22266H18.8152C19.1735 5.22266 19.4638 5.51293 19.4638 5.87095C19.4638 6.22897 19.1735 6.51923 18.8152 6.51923Z" fill="#B8B6B6"/>
<path id="Fill-3" fill-rule="evenodd" clip-rule="evenodd" d="M4.12621 3.30496C3.76794 3.30496 3.47754 3.01473 3.47754 2.65667V0.648289C3.47754 0.290261 3.76794 0 4.12621 0C4.48445 0 4.77489 0.290261 4.77489 0.648289V2.65667C4.77489 3.01473 4.48445 3.30496 4.12621 3.30496Z" fill="#B8B6B6"/>
<path id="Fill-4" fill-rule="evenodd" clip-rule="evenodd" d="M7.26682 3.30496C6.9086 3.30496 6.61816 3.01473 6.61816 2.65667V0.648289C6.61816 0.290261 6.9086 0 7.26682 0C7.62509 0 7.91549 0.290261 7.91549 0.648289V2.65667C7.91549 3.01473 7.62509 3.30496 7.26682 3.30496Z" fill="#B8B6B6"/>
<path id="Fill-5" fill-rule="evenodd" clip-rule="evenodd" d="M10.4084 3.30496C10.0503 3.30496 9.75977 3.01473 9.75977 2.65667V0.648289C9.75977 0.290261 10.0503 0 10.4084 0C10.7667 0 11.0571 0.290261 11.0571 0.648289V2.65667C11.0571 3.01473 10.7667 3.30496 10.4084 3.30496Z" fill="#B8B6B6"/>
<path id="Fill-6" fill-rule="evenodd" clip-rule="evenodd" d="M13.5502 3.30496C13.1919 3.30496 12.9014 3.01473 12.9014 2.65667V0.648289C12.9014 0.290261 13.1919 0 13.5502 0C13.9083 0 14.1988 0.290261 14.1988 0.648289V2.65667C14.1988 3.01473 13.9083 3.30496 13.5502 3.30496Z" fill="#B8B6B6"/>
<path id="Fill-7" fill-rule="evenodd" clip-rule="evenodd" d="M16.6906 3.30496C16.3323 3.30496 16.042 3.01473 16.042 2.65667V0.648289C16.042 0.290261 16.3323 0 16.6906 0C17.049 0 17.3393 0.290261 17.3393 0.648289V2.65667C17.3393 3.01473 17.049 3.30496 16.6906 3.30496Z" fill="#B8B6B6"/>
<path id="Fill-8" fill-rule="evenodd" clip-rule="evenodd" d="M4.88477 10.5143H6.70481V8.69531H4.88477V10.5143Z" fill="#B8B6B6"/>
<path id="Fill-9" fill-rule="evenodd" clip-rule="evenodd" d="M9.08984 10.5143H10.9099V8.69531H9.08984V10.5143Z" fill="#B8B6B6"/>
<path id="Fill-10" fill-rule="evenodd" clip-rule="evenodd" d="M13.2949 10.5143H15.1149V8.69531H13.2949V10.5143Z" fill="#B8B6B6"/>
<path id="Fill-11" fill-rule="evenodd" clip-rule="evenodd" d="M4.88477 14.1863H6.70481V12.3672H4.88477V14.1863Z" fill="#B8B6B6"/>
<path id="Fill-12" fill-rule="evenodd" clip-rule="evenodd" d="M9.08984 14.1863H10.9099V12.3672H9.08984V14.1863Z" fill="#B8B6B6"/>
<path id="Fill-13" fill-rule="evenodd" clip-rule="evenodd" d="M13.2949 14.1863H15.1149V12.3672H13.2949V14.1863Z" fill="#B8B6B6"/>
<path id="Fill-14" fill-rule="evenodd" clip-rule="evenodd" d="M4.88477 17.858H6.70481V16.0391H4.88477V17.858Z" fill="#B8B6B6"/>
<path id="Fill-15" fill-rule="evenodd" clip-rule="evenodd" d="M9.08984 17.858H10.9099V16.0391H9.08984V17.858Z" fill="#B8B6B6"/>
<path id="Fill-16" fill-rule="evenodd" clip-rule="evenodd" d="M13.2949 17.858H15.1149V16.0391H13.2949V17.858Z" fill="#B8B6B6"/>
</g>
</g>
</g>
</g>
<defs>
<clipPath id="clip0_3737_5294">
<rect width="20" height="21" fill="white"/>
</clipPath>
</defs>
</svg>
