<svg width="14" height="14" viewBox="0 0 14 14" fill="none" xmlns="http://www.w3.org/2000/svg">
<g id="Iconsax/Linear/car" clip-path="url(#clip0_3737_6088)">
<path id="Vector" d="M2.55587 4.43799H2.00025M12.0015 4.43799H11.4459M7.00087 1.53994V2.69916M6.16743 2.69916H7.8343M3.66712 8.49525H5.33399M8.66774 8.49525H10.3346M8.95111 1.44141H5.05063C3.66712 1.44141 3.36153 2.16012 3.18373 3.04113L2.55587 6.17681H11.4459L10.818 3.04113C10.6402 2.16012 10.3346 1.44141 8.95111 1.44141ZM12.5516 11.289C12.6127 11.9671 12.0904 12.5525 11.4236 12.5525H10.3791C9.77899 12.5525 9.69565 12.2859 9.59008 11.9555L9.47895 11.6078C9.32338 11.1325 9.22337 10.8137 8.42327 10.8137H5.57847C4.77837 10.8137 4.66169 11.173 4.52278 11.6078L4.41166 11.9555C4.30609 12.2859 4.22275 12.5525 3.62267 12.5525H2.5781C1.91135 12.5525 1.38906 11.9671 1.45018 11.289L1.76133 7.75915C1.83912 6.88973 2.00025 6.17681 3.45598 6.17681H10.5458C12.0015 6.17681 12.1626 6.88973 12.2404 7.75915L12.5516 11.289Z" stroke="#FB9400" stroke-width="1.33333" stroke-linecap="round" stroke-linejoin="round"/>
</g>
<defs>
<clipPath id="clip0_3737_6088">
<rect width="13.3333" height="13.3333" fill="white" transform="translate(0.333984 0.332031)"/>
</clipPath>
</defs>
</svg>
