<svg width="24" height="24" viewBox="0 0 24 24" fill="none" xmlns="http://www.w3.org/2000/svg">
<circle cx="12" cy="12" r="12" fill="black" fill-opacity="0.4"/>
<path d="M12.9406 12.0027L15.8045 9.14273C15.9299 9.01719 16.0003 8.84693 16.0003 8.66939C16.0003 8.49186 15.9299 8.3216 15.8045 8.19606C15.679 8.07053 15.5089 8 15.3316 8C15.1542 8 14.9841 8.07053 14.8587 8.19606L12.0015 11.0627L9.14423 8.19606C9.01881 8.07053 8.84871 8 8.67135 8C8.49399 8 8.32389 8.07053 8.19847 8.19606C8.07306 8.3216 8.0026 8.49186 8.0026 8.66939C8.0026 8.84693 8.07306 9.01719 8.19847 9.14273L11.0624 12.0027L8.19847 14.8627C8.13605 14.9247 8.0865 14.9984 8.05269 15.0797C8.01887 15.1609 8.00146 15.2481 8.00146 15.3361C8.00146 15.4241 8.01887 15.5112 8.05269 15.5924C8.0865 15.6737 8.13605 15.7474 8.19847 15.8094C8.26039 15.8719 8.33405 15.9215 8.41521 15.9553C8.49637 15.9892 8.58343 16.0066 8.67135 16.0066C8.75927 16.0066 8.84633 15.9892 8.92749 15.9553C9.00865 15.9215 9.08231 15.8719 9.14423 15.8094L12.0015 12.9427L14.8587 15.8094C14.9206 15.8719 14.9943 15.9215 15.0754 15.9553C15.1566 15.9892 15.2437 16.0066 15.3316 16.0066C15.4195 16.0066 15.5066 15.9892 15.5877 15.9553C15.6689 15.9215 15.7425 15.8719 15.8045 15.8094C15.8669 15.7474 15.9164 15.6737 15.9502 15.5924C15.9841 15.5112 16.0015 15.4241 16.0015 15.3361C16.0015 15.2481 15.9841 15.1609 15.9502 15.0797C15.9164 14.9984 15.8669 14.9247 15.8045 14.8627L12.9406 12.0027Z" fill="white"/>
</svg>
