<svg width="24" height="24" viewBox="0 0 24 24" fill="none" xmlns="http://www.w3.org/2000/svg">
<g id="Group 416">
<path id="Vector" d="M0.728516 23.6214C0.728516 23.8288 0.897319 23.9982 1.10348 23.9982H3.2823L3.28248 17.6828H5.26991V23.9621H6.01985V17.6828H8.00368V23.9982H10.1862C10.3926 23.9982 10.5612 23.8286 10.5612 23.6214V6.67578H0.728548L0.728516 23.6214ZM3.96105 14.6718V12.1282H7.32468V14.6718H3.96105ZM7.32486 8.83094V11.3746H3.96105V8.83112L7.32486 8.83094Z" fill="#000"/>
<path id="Vector_2" d="M10.9089 3.34375H0.374964C0.16863 3.34375 0 3.51337 0 3.72053V5.54811C0 5.75545 0.168803 5.92489 0.374964 5.92489H10.9089C11.1189 5.92489 11.2838 5.75527 11.2838 5.54811V3.72053C11.2838 3.51338 11.1189 3.34375 10.9089 3.34375Z" fill="#000"/>
<path id="Vector_3" d="M23.6258 8.67582H11.3105V11.6187H23.6258C23.8322 11.6187 24.0008 11.4491 24.0008 11.2419V9.05256C24.001 8.84541 23.8322 8.67582 23.6258 8.67582Z" fill="#000"/>
<path id="Vector_4" d="M11.3106 24H22.8982C23.1083 24 23.2732 23.8304 23.2732 23.6232L23.2734 12.3711H11.3105L11.3106 24ZM13.0019 21.106V18.5624H16.3657V21.106H13.0019ZM18.2181 21.106V18.5624H21.5817V21.106H18.2181ZM21.5817 15.2652V17.8086H18.2181V15.2652H21.5817ZM13.0018 15.2652H16.3656V17.8086H13.0018V15.2652Z" fill="#000"/>
<path id="Vector_5" d="M18.3672 5.70491C18.3672 5.49757 18.2021 5.32812 17.9922 5.32812H15.0859C14.8796 5.32812 14.7109 5.49775 14.7109 5.70491V7.92055H18.3672L18.3672 5.70491Z" fill="#000"/>
<path id="Vector_6" d="M7.51952 0.376782C7.51952 0.169447 7.35072 0 7.14455 0H4.23825C4.03191 0 3.86328 0.169621 3.86328 0.376782V2.58868H7.51953L7.51952 0.376782Z" fill="#000"/>
</g>
</svg>
