<!-- <svg width="22" height="24" viewBox="0 0 22 24"  xmlns="http://www.w3.org/2000/svg">
<path id="Vector" d="M9.37437 0.54007C9.81008 0.19051 10.352 0 10.9106 0C11.4692 0 12.0111 0.19051 12.4468 0.54007L20.9025 7.32318C21.1892 7.5532 21.4206 7.84468 21.5796 8.1761C21.7386 8.50751 21.8212 8.8704 21.8212 9.23798V21.5451C21.8212 22.1962 21.5625 22.8206 21.1021 23.281C20.6418 23.7414 20.0174 24 19.3663 24H16.6386C15.9876 24 15.3632 23.7414 14.9028 23.281C14.4424 22.8206 14.1838 22.1962 14.1838 21.5451V14.4532C14.1838 14.2362 14.0975 14.0281 13.9441 13.8746C13.7906 13.7212 13.5825 13.6349 13.3655 13.6349H8.4557C8.23868 13.6349 8.03054 13.7212 7.87708 13.8746C7.72362 14.0281 7.63741 14.2362 7.63741 14.4532V21.5451C7.63741 22.1962 7.37877 22.8206 6.91839 23.281C6.45801 23.7414 5.8336 24 5.18253 24H2.45488C1.80381 24 1.1794 23.7414 0.719018 23.281C0.258639 22.8206 0 22.1962 0 21.5451V9.23798C0 8.49279 0.338228 7.78906 0.918671 7.32318L9.37437 0.54007Z" fill="#C1C1C1"/>
</svg> -->
<svg xmlns="http://www.w3.org/2000/svg" width="22" height="24" viewBox="0 0 22 24">
<path d="M9.37437 0.54007C9.81008 0.19051 10.352 0 10.9106 0C11.4692 0 12.0111 0.19051 12.4468 0.54007L20.9025 7.32318C21.1892 7.5532 21.4206 7.84468 21.5796 8.1761C21.7386 8.50751 21.8212 8.8704 21.8212 9.23798V21.5451C21.8212 22.1962 21.5625 22.8206 21.1021 23.281C20.6418 23.7414 20.0174 24 19.3663 24H16.6386C15.9876 24 15.3632 23.7414 14.9028 23.281C14.4424 22.8206 14.1838 22.1962 14.1838 21.5451V14.4532C14.1838 14.2362 14.0975 14.0281 13.9441 13.8746C13.7906 13.7212 13.5825 13.6349 13.3655 13.6349H8.4557C8.23868 13.6349 8.03054 13.7212 7.87708 13.8746C7.72362 14.0281 7.63741 14.2362 7.63741 14.4532V21.5451C7.63741 22.1962 7.37877 22.8206 6.91839 23.281C6.45801 23.7414 5.8336 24 5.18253 24H2.45488C1.80381 24 1.1794 23.7414 0.719018 23.281C0.258639 22.8206 0 22.1962 0 21.5451V9.23798C0 8.49279 0.338228 7.78906 0.918671 7.32318L9.37437 0.54007Z" fill="#000"/>
</svg>