<svg width="32" height="32" viewBox="0 0 32 32" fill="none" xmlns="http://www.w3.org/2000/svg">
<rect width="32" height="32" fill="#D9D9D9" fill-opacity="0.01"/>
<path d="M14.9493 5.16608L14.9493 5.16606C15.2465 4.92956 15.6171 4.8 16 4.8C16.3829 4.8 16.7535 4.92956 17.0507 5.16606L17.0507 5.16608L25.5757 11.9492C25.7712 12.1047 25.9284 12.3014 26.0363 12.5244C26.1441 12.7474 26.2 12.9912 26.2 13.238V25.5451C26.2 25.9819 26.0251 26.4021 25.7117 26.713C25.3981 27.0241 24.9713 27.2 24.525 27.2H21.775C21.3287 27.2 20.9019 27.0241 20.5883 26.713C20.2749 26.4021 20.1 25.9819 20.1 25.5451V18.4532C20.1 18.0219 19.9272 17.6096 19.6217 17.3066C19.3165 17.0039 18.9039 16.8349 18.475 16.8349H13.525C13.0961 16.8349 12.6835 17.0039 12.3783 17.3066L12.9416 17.8746L12.3783 17.3066C12.0728 17.6096 11.9 18.0219 11.9 18.4532V25.5451C11.9 25.9819 11.7251 26.4021 11.4117 26.713C11.0981 27.0241 10.6713 27.2 10.225 27.2H7.475C7.02867 27.2 6.60191 27.0241 6.28828 26.713C5.97487 26.4021 5.8 25.9819 5.8 25.5451V13.238C5.8 12.7383 6.02847 12.2644 6.4243 11.9492C6.42436 11.9491 6.42441 11.9491 6.42447 11.9491L14.9493 5.16608Z" stroke="white" stroke-width="1.6"/>
</svg>
