<?xml version="1.0" encoding="UTF-8"?>
<svg version="1.1" xmlns="http://www.w3.org/2000/svg" width="176" height="105">
<path d="M0 0 C24.73302693 -0.49825866 51.64770942 -0.686032 71.07470703 17.08691406 C75.99920318 22.3469652 81.07470703 28.57662847 81.07470703 36.08691406 C80.22908203 36.29445312 79.38345703 36.50199219 78.51220703 36.71582031 C61.45703288 41.34785057 55.58704844 53.29141359 47.23779297 67.68139648 C43.26270583 74.5262916 39.35376457 81.14038948 34.07470703 87.08691406 C33.46240234 87.78042969 32.85009766 88.47394531 32.21923828 89.18847656 C21.89228165 100.1956519 8.75469273 104.97029081 -6.14257812 105.50878906 C-21.21722263 105.6246643 -35.22461156 101.26377537 -46.11279297 90.58691406 C-53.29121305 83.1985177 -58.29984916 74.63720663 -63.42138672 65.77050781 C-72.97225101 48.08099069 -72.97225101 48.08099069 -89.20654297 37.34863281 C-91.0963732 36.85953943 -93.00980312 36.463171 -94.92529297 36.08691406 C-95.42057164 30.14356998 -94.46985338 25.96068462 -90.92529297 21.08691406 C-69.2628307 -1.04241161 -28.47828443 0.63056781 0 0 Z " fill="#F5F5F5" transform="translate(94.92529296875,-0.0869140625)"/>
</svg>
