<svg width="32" height="32" viewBox="0 0 32 32" fill="none" xmlns="http://www.w3.org/2000/svg">
<rect width="32" height="32" fill="#D9D9D9" fill-opacity="0.01"/>
<path d="M12 4H7.20001C5.43602 4 4 5.43601 4 7.19999V11.9999C4 13.7639 5.43602 15.1999 7.20001 15.1999L12 15.2001C13.764 15.2001 15.2 13.7641 15.2 12.0001V7.20016C15.2 5.43619 13.764 4 12 4ZM13.5997 12.0002C13.5997 12.8841 12.8837 13.6001 11.9998 13.6001L7.20028 13.5999C6.31635 13.5999 5.60037 12.8839 5.60037 12L5.60002 7.20053C5.60002 6.3166 6.316 5.60063 7.19993 5.60063H11.9999C12.8838 5.60063 13.5998 6.3166 13.5998 7.20053L13.5997 12.0002ZM12 16.8001H7.20001C5.43602 16.8001 4 18.2361 4 20.0001V24.8C3.99982 26.5638 5.43602 28 7.20001 28H12C13.764 28 15.2 26.564 15.2 24.8V20.0001C15.2 18.2361 13.764 16.8001 12 16.8001ZM13.5997 24.7998C13.5997 25.6838 12.8837 26.3997 11.9998 26.3997L7.19983 26.4001C6.3159 26.4001 5.59992 25.6841 5.59992 24.8002L5.59974 19.9998C5.59974 19.1159 6.31572 18.3999 7.19966 18.3999H11.9996C12.8836 18.3999 13.5995 19.1159 13.5995 19.9998L13.5997 24.7998ZM24.7998 4H19.9998C18.2358 4 16.7998 5.43601 16.7998 7.19999V11.9999C16.7998 13.7639 18.2358 15.1999 19.9998 15.1999H24.7998C26.5638 15.1999 27.9998 13.7639 27.9998 11.9999L28 7.19999C28 5.43619 26.5638 4 24.7998 4ZM26.4001 11.9997C26.4001 12.8837 25.6841 13.5996 24.8002 13.5996H19.9997C19.1158 13.5996 18.3998 12.8837 18.3998 11.9997L18.4 7.1998C18.4 6.31588 19.116 5.5999 19.9999 5.5999H24.7999C25.6838 5.5999 26.3998 6.31588 26.3998 7.1998L26.4001 11.9997ZM24.7998 16.7997H19.9998C18.2358 16.7997 16.7998 18.2357 16.7998 19.9996V24.7996C16.7998 26.5635 18.2358 27.9995 19.9998 27.9995H24.7998C26.5638 27.9995 27.9998 26.5635 27.9998 24.7996L28 19.9996C28 18.2357 26.564 16.7997 24.8 16.7997H24.7998ZM26.4001 24.7994C26.4001 25.6833 25.6841 26.3993 24.8002 26.3993L19.9997 26.3996C19.1158 26.3996 18.3998 25.6837 18.3998 24.7997L18.4 19.9994C18.4 19.1154 19.116 18.3995 19.9999 18.3995H24.7999C25.6838 18.3995 26.3998 19.1154 26.3998 19.9994L26.4001 24.7994Z" fill="white"/>
</svg>
