<svg width="32" height="32" viewBox="0 0 32 32" fill="none" xmlns="http://www.w3.org/2000/svg">
<rect width="32" height="32" fill="#D9D9D9" fill-opacity="0.01"/>
<path d="M24.3749 13.8665V13.0558C24.3749 8.6064 20.847 5 16.5 5C12.153 5 8.62505 8.6064 8.62505 13.0558V13.8665C8.62646 14.8343 8.34627 15.7822 7.81773 16.5978L6.52507 18.5815C5.34558 20.3928 6.24624 22.8549 8.29839 23.4276C13.6605 24.926 19.3395 24.926 24.7016 23.4276C26.7538 22.8549 27.6544 20.3928 26.4749 18.5827L25.1823 16.5989C24.6533 15.7834 24.3727 14.8356 24.3738 13.8677L24.3749 13.8665Z" stroke="white" stroke-width="2"/>
<path d="M11.25 24.5508C12.0142 26.561 14.0756 28.0008 16.5 28.0008C18.9243 28.0008 20.9858 26.561 21.7499 24.5508" stroke="white" stroke-width="2" stroke-linecap="round"/>
</svg>
