<svg width="32" height="32" viewBox="0 0 32 32" fill="none" xmlns="http://www.w3.org/2000/svg">
<rect width="32" height="32" fill="#D9D9D9" fill-opacity="0.01"/>
<path d="M15 4V6.03C12.23 6.233 10 8.556 10 11.375C10 13.959 11.864 16.163 14.406 16.625L15 16.75V24H14.375C13.9315 24.0009 13.4922 23.9143 13.0824 23.745C12.6725 23.5757 12.3 23.3271 11.9865 23.0135C11.6729 22.7 11.4243 22.3275 11.255 21.9176C11.0857 21.5078 10.9991 21.0685 11 20.625V19H9V20.625C9 23.575 11.426 26 14.375 26H15V28H17V26H17.625C20.573 26 23 23.574 23 20.625C23 18.041 21.137 15.837 18.594 15.375L17 15.062V8.032C17.8244 8.12084 18.5869 8.5114 19.1407 9.12854C19.6945 9.74567 20.0006 10.5458 20 11.375V13H22V11.375C22 8.555 19.77 6.233 17 6.031V4H15ZM15 8.03V14.688L14.75 14.656C13.9778 14.5226 13.2779 14.12 12.7744 13.5195C12.271 12.919 11.9966 12.1596 12 11.376C11.9992 10.5465 12.3051 9.74602 12.8589 9.12851C13.4127 8.511 14.1753 8.12009 15 8.031V8.03ZM17 17.125L18.25 17.345C19.0223 17.4782 19.7223 17.8808 20.2258 18.4813C20.7293 19.0818 21.0036 19.8414 21 20.625C21.0008 21.0684 20.914 21.5077 20.7447 21.9175C20.5754 22.3273 20.3268 22.6997 20.0132 23.0132C19.6997 23.3268 19.3273 23.5754 18.9175 23.7447C18.5077 23.914 18.0684 24.0008 17.625 24H17V17.125Z" fill="white"/>
</svg>
