<svg width="28" height="28" viewBox="0 0 28 28" fill="none" xmlns="http://www.w3.org/2000/svg">
<g id="Group 24035">
<rect id="Rectangle 662" x="0.806641" y="0.5" width="26.5385" height="26.5385" rx="5.30769" fill="#FF7C00"/>
<path id="Vector" d="M21.8379 7.77746C21.9656 7.90557 22.0373 8.07908 22.0373 8.25997C22.0373 8.44086 21.9656 8.61437 21.8379 8.74248L20.412 10.1695L17.6779 7.43573L19.1038 6.0087C19.2319 5.88057 19.4058 5.80859 19.587 5.80859C19.7683 5.80859 19.9421 5.88057 20.0703 6.0087L21.8379 7.77609V7.77746ZM19.4455 11.1345L16.7114 8.40076L7.39755 17.7148C7.32231 17.79 7.26566 17.8817 7.23213 17.9827L6.13164 21.2824C6.11168 21.3425 6.10885 21.407 6.12346 21.4687C6.13806 21.5304 6.16954 21.5868 6.21436 21.6316C6.25918 21.6764 6.31558 21.7079 6.37726 21.7225C6.43894 21.7371 6.50347 21.7342 6.56363 21.7143L9.86374 20.6139C9.96458 20.5808 10.0563 20.5246 10.1317 20.4499L19.4455 11.1359V11.1345Z" fill="white"/>
</g>
</svg>
