<svg width="273" height="184" viewBox="0 0 273 184" fill="none" xmlns="http://www.w3.org/2000/svg">
<path d="M18.5812 145.719C26.1702 145.719 32.7119 149.541 35.4866 156.659H28.3165C26.3797 152.786 22.9251 150.956 18.5812 150.956C11.3698 150.956 6.12276 156.082 6.12276 164.3C6.12276 172.517 11.3561 177.692 18.5812 177.692C22.9251 177.692 26.3797 175.859 28.3165 171.989H35.4866C32.7119 179.104 26.1702 182.874 18.5812 182.874C8.32049 182.881 0 175.241 0 164.3C0 153.414 8.32049 145.719 18.5812 145.719Z" fill="white"/>
<path d="M54.0678 153.254C58.9337 153.254 62.2818 155.558 64.064 157.914V153.724H70.0803V182.57H64.064V178.274C62.2303 180.732 58.7757 183.037 53.9613 183.037C46.4787 183.037 40.459 176.91 40.459 168.013C40.459 159.116 46.4787 153.254 54.0678 153.254ZM55.3212 158.436C50.8742 158.436 46.5817 161.787 46.5817 168.013C46.5817 174.239 50.8742 177.855 55.3212 177.855C59.8231 177.855 64.064 174.349 64.064 168.12C64.064 161.942 59.8231 158.436 55.3212 158.436Z" fill="white"/>
<path d="M98.397 166.446C98.397 161.161 95.5193 158.438 91.1857 158.438C86.852 158.438 83.9091 161.161 83.9091 166.446V182.565H77.9512V153.72H83.916V157.02C85.8527 154.664 89.0463 153.242 92.5009 153.242C99.252 153.242 104.327 157.483 104.327 165.543V182.551H98.397V166.446Z" fill="white"/>
<path d="M124.309 183.033C116.04 183.033 109.914 177.168 109.914 168.116C109.914 159.064 115.776 153.25 124.309 153.25C132.527 153.25 138.334 158.957 138.334 167.436C138.342 168.416 138.272 169.396 138.124 170.365H116.088C116.507 175.128 119.907 178.005 124.306 178.005C127.97 178.005 130.01 176.227 131.108 173.977H137.547C135.923 179.005 131.369 183.033 124.309 183.033ZM116.14 165.554H132.104C131.998 161.09 128.492 158.277 124.045 158.277C120.013 158.277 116.755 161 116.14 165.554Z" fill="white"/>
<path d="M154.663 183.033C147.753 183.033 142.884 178.95 142.623 173.716H148.804C149.014 176.069 151.263 178.005 154.56 178.005C158.014 178.005 159.848 176.543 159.848 174.551C159.848 168.899 143.097 172.147 143.097 161.574C143.097 156.966 147.389 153.25 154.196 153.25C160.737 153.25 165.03 156.756 165.342 162.522H159.374C159.164 160.008 157.228 158.281 153.983 158.281C150.738 158.281 149.113 159.589 149.113 161.526C149.113 167.336 165.39 164.091 165.706 174.506C165.706 179.372 161.465 183.033 154.663 183.033Z" fill="white"/>
<path d="M173.071 158.594H169.668V153.725H173.071V146.555H179.091V153.725H186.12V158.594H179.105V174.555C179.105 176.701 179.939 177.594 182.453 177.594H186.12V182.563H181.405C176.275 182.563 173.085 180.417 173.085 174.555L173.071 158.594Z" fill="white"/>
<path d="M203.232 153.254C208.098 153.254 211.449 155.558 213.228 157.914V153.724H219.248V182.57H213.228V178.274C211.398 180.732 207.943 183.033 203.129 183.033C195.643 183.033 189.623 176.907 189.623 168.01C189.623 159.112 195.643 153.254 203.232 153.254ZM204.489 158.436C200.025 158.436 195.746 161.787 195.746 168.013C195.746 174.239 200.038 177.855 204.489 177.855C208.939 177.855 213.228 174.349 213.228 168.12C213.228 161.942 208.987 158.436 204.489 158.436Z" fill="white"/>
<path d="M228.042 158.594H224.639V153.725H228.042V146.555H234.058V153.725H241.063V158.594H234.058V174.555C234.058 176.701 234.896 177.594 237.41 177.594H241.063V182.563H236.362C231.232 182.563 228.042 180.417 228.042 174.555V158.594Z" fill="white"/>
<path d="M258.972 183.033C250.703 183.033 244.58 177.168 244.58 168.116C244.58 159.064 250.442 153.25 258.972 153.25C267.189 153.25 273 158.957 273 167.436C273.008 168.416 272.938 169.396 272.79 170.365H250.754C251.173 175.128 254.576 178.005 258.972 178.005C262.636 178.005 264.679 176.227 265.778 173.977H272.213C270.596 179.005 266.039 183.033 258.972 183.033ZM250.806 165.554H266.77C266.667 161.09 263.158 158.277 258.711 158.277C254.679 158.277 251.438 161 250.806 165.554Z" fill="white"/>
<path d="M98.0493 97.5273L112.578 105.425C112.578 105.425 112.994 105.01 115.068 105.841C117.142 106.672 121.709 109.162 121.709 109.162C121.709 109.162 114.031 113.516 111.947 128.46L105.305 123.893L104.897 122.252L97.8398 118.931L98.0493 97.5273Z" fill="white"/>
<path d="M109.465 124.723C110.383 124.723 111.127 123.978 111.127 123.06C111.127 122.143 110.383 121.398 109.465 121.398C108.547 121.398 107.803 122.143 107.803 123.06C107.803 123.978 108.547 124.723 109.465 124.723Z" fill="white"/>
<path d="M134.371 109.365C134.371 109.365 131.465 107.707 129.388 108.538C127.31 109.369 122.331 110.196 122.331 110.196C122.331 110.196 114.031 118.094 114.031 126.387C114.031 126.387 114.447 128.046 116.521 126.8C118.595 125.553 121.504 126.8 121.919 127.631C121.919 127.631 126.483 123.067 128.976 128.462C128.976 128.462 133.54 128.877 133.124 132.198C133.124 132.198 136.445 132.613 136.86 135.518L141.427 138.839C141.427 138.839 144.748 140.501 144.748 136.779L141.012 133.458C141.012 133.458 141.012 132.627 141.843 133.458C142.674 134.289 145.579 135.948 145.579 135.948C145.579 135.948 149.315 137.191 148.484 133.887L143.089 128.492C143.089 128.492 142.258 127.661 143.089 128.077C143.92 128.492 148.484 132.644 148.484 132.644C148.484 132.644 152.22 133.475 151.389 130.567C151.389 130.567 141.012 119.362 138.107 117.7C138.107 117.7 136.046 117.284 134.786 119.76C133.526 122.236 128.145 123.496 126.888 121.006C125.631 118.517 129.803 112.274 129.803 112.274L134.371 109.365Z" fill="white"/>
<path d="M138.107 108.953L130.635 113.517L127.314 120.158C127.314 120.158 131.051 125.141 135.618 115.594C135.618 115.594 136.445 113.932 136.033 116.422C136.033 116.422 139.354 115.594 140.182 114.362L138.938 116.422L152.636 129.708C152.636 129.708 158.862 128.046 160.109 125.556C160.109 125.556 160.109 118.915 152.636 110.196C152.636 110.196 140.182 111.027 138.107 108.953Z" fill="white"/>
<path d="M152.637 109.364C152.637 109.364 160.937 114.762 162.595 128.46H163.426L170.071 124.312L169.655 122.252L176.712 118.931V97.3281L161.768 105.628L161.352 104.8L152.637 109.364Z" fill="white"/>
<path d="M165.504 124.308C166.422 124.308 167.166 123.564 167.166 122.646C167.166 121.728 166.422 120.984 165.504 120.984C164.586 120.984 163.842 121.728 163.842 122.646C163.842 123.564 164.586 124.308 165.504 124.308Z" fill="white"/>
<path d="M118.183 127.217L115.484 129.916C115.484 129.916 114.862 132.615 117.767 132.615C117.767 132.615 118.598 136.767 121.919 135.52C121.919 135.52 123.162 139.672 126.483 138.01C126.483 138.01 128.145 142.161 131.465 140.087C134.786 138.013 135.617 135.935 135.617 135.935C135.617 135.935 134.786 133.03 132.708 133.446L128.976 136.351C128.976 136.351 128.56 135.935 131.036 133.446C131.036 133.446 132.695 130.953 130.62 130.122C128.546 129.291 126.053 132.615 125.226 133.446L124.408 134.273L126.898 130.537C126.898 130.537 128.145 128.879 126.483 127.632C124.82 126.386 123.577 128.048 123.577 128.048L121.088 130.953L120.672 130.537C120.672 130.537 121.919 128.879 120.672 127.632C119.426 126.386 118.183 127.217 118.183 127.217Z" fill="white"/>
<path d="M136.446 135.934C136.446 135.934 136.446 138.839 134.787 139.254L137.692 140.913C137.692 140.913 139.753 141.328 140.182 140.085C140.611 138.842 139.354 138.008 139.354 138.008L136.446 135.934Z" fill="white"/>
<path d="M135.912 82.2969H130.129V88.0797H135.912V82.2969Z" fill="white"/>
<path d="M144.878 82.2969H139.096V88.0797H144.878V82.2969Z" fill="white"/>
<path d="M135.912 91.2617H130.129V97.0445H135.912V91.2617Z" fill="white"/>
<path d="M144.878 91.2617H139.096V97.0445H144.878V91.2617Z" fill="white"/>
<path d="M174.718 95.8762V122.695L216.955 87.1608L206.228 81.797L214.274 56.317L188.797 61.6808L183.433 48.2712L161.978 68.3874L168.684 20.1127L152.593 30.8404L136.501 0L120.41 30.8404L104.318 20.1127L111.025 68.3874L89.5692 48.2712L84.2054 61.6808L58.7288 56.317L66.7746 81.797L56.0469 87.1608L98.2846 122.695V95.8762L91.5815 99.8974L87.5569 95.8762L136.501 61.6808L185.445 95.8762L181.421 99.8974L174.718 95.8762Z" fill="white"/>
</svg>
