<svg width="25" height="24" viewBox="0 0 25 24" fill="none" xmlns="http://www.w3.org/2000/svg">
<path id="Vector" d="M2.31795 8.25957V0.467435C2.31795 0.207623 2.5263 0 2.7866 0H8.52872H14.2708C14.5313 0 14.7395 0.207813 14.7395 0.467435V2.72711H14.1666L14.1668 0.727266C14.1668 0.59736 14.0627 0.493544 13.9584 0.493544H3.07312C2.94288 0.493544 2.86477 0.59736 2.86477 0.727266V6.77916C2.86477 6.90906 2.96885 7.01288 3.07312 7.01288H10.7032C10.5991 7.27269 10.5209 7.55842 10.5209 7.87001V8.72715H2.81262C2.55213 8.72715 2.31795 8.51938 2.31795 8.25957ZM12.7866 6.38964H18.2032C19.0366 6.38964 19.7136 7.06491 19.7136 7.89612V12.2596H20.6511C20.9375 12.2596 21.1718 12.4933 21.1718 12.7791C21.1718 13.0648 20.9375 13.2985 20.6511 13.2985H19.7395V15.2465C19.7395 16.0778 19.0625 16.753 18.2291 16.753H12.7865C11.9531 16.753 11.2761 16.0777 11.2761 15.2465V13.2985H10.3645C10.0781 13.2985 9.84376 13.0648 9.84376 12.7791C9.84376 12.4933 10.0781 12.2596 10.3645 12.2596H11.2761V7.87001C11.2761 7.03894 11.9532 6.38964 12.7866 6.38964ZM20.1301 20.7271L16.328 20.1816L16.3282 17.4025C16.3282 17.2206 16.172 17.0908 16.0157 17.0908H15.0523C14.8699 17.0908 14.7398 17.2467 14.7398 17.4025V20.1818L10.9377 20.7273C10.7553 20.7532 10.6253 20.9092 10.6512 21.0909C10.6772 21.2728 10.8336 21.4026 11.0158 21.3767L14.7396 20.8572V21.065C14.7396 21.2469 14.8958 21.3767 15.0521 21.3767H16.0155C16.1979 21.3767 16.328 21.2208 16.328 21.065V20.8572L20.0518 21.3767H20.1039C20.2602 21.3767 20.3904 21.2728 20.4164 21.0909C20.4166 20.909 20.2865 20.7532 20.1301 20.7271ZM15.4948 21.7142C15.2083 21.7142 14.974 21.9479 14.974 22.2336V23.4544C14.974 23.7401 15.2083 23.9738 15.4948 23.9738C15.7812 23.9738 16.0156 23.7401 16.0156 23.4544V22.2336C16.0157 21.974 15.7812 21.7142 15.4948 21.7142ZM11.3021 21.7142C11.0157 21.7142 10.7813 21.9479 10.7813 22.2336V23.4544C10.7813 23.7401 11.0157 23.9738 11.3021 23.9738C11.5886 23.9738 11.8229 23.7401 11.8229 23.4544V22.2336C11.8231 21.974 11.5886 21.7142 11.3021 21.7142ZM19.7135 21.7142C19.427 21.7142 19.1927 21.9479 19.1927 22.2336V23.4544C19.1927 23.7401 19.427 23.9738 19.7135 23.9738C19.9999 23.9738 20.2343 23.7401 20.2343 23.4544V22.2336C20.2343 21.974 19.9999 21.7142 19.7135 21.7142ZM22.3436 10.7273H20.4686V11.792H22.3436C23.229 11.792 23.9321 12.4934 23.9321 13.3764V15.3504L20.4686 15.3506C20.4165 16.5455 19.4271 17.4805 18.2291 17.4805H16.953V18.6234H23.9321L23.9323 24H25V13.3767C25 11.9222 23.8019 10.7273 22.3436 10.7273ZM12.8385 4.6494C12.8385 5.35074 13.4114 5.94809 14.1406 5.94809H16.9009C17.6041 5.94809 18.203 5.37666 18.203 4.6494C18.203 3.94806 17.6301 3.35071 16.9009 3.35071H14.1144C13.4114 3.35071 12.8385 3.94825 12.8385 4.6494ZM14.0625 18.6233V17.4804H12.7864C11.5884 17.4804 10.599 16.5194 10.5468 15.3505L1.06778 15.3506V13.3767C1.06778 12.4936 1.77094 11.7923 2.6563 11.7923H10.5208V10.3117C10.3384 10.1039 10.2343 9.92215 10.1562 9.76614C10.0781 9.61032 9.89573 9.45451 9.71354 9.45451H7.47398C7.2916 9.45451 7.10941 9.58441 7.0313 9.76614C6.92722 9.99986 6.69271 10.3376 6.2762 10.7012H2.65626C1.19799 10.7012 0 11.8961 0 13.3506V23.9998H1.06774V18.6232L14.0625 18.6233Z" fill="#000"/>
</svg>
