<svg width="29" height="14" viewBox="0 0 29 14" fill="none" xmlns="http://www.w3.org/2000/svg">
<g id="Group 418">
<g id="Group 58829">
<g id="Group 58830">
<path id="Vector" d="M13.8505 3.03305C13.8777 2.88168 13.8968 2.72655 13.8968 2.5662C13.8968 1.14793 12.781 0 11.4045 0H8.23249C6.85659 0 5.74023 1.14852 5.74023 2.5662C5.74023 2.72717 5.75868 2.88147 5.78646 3.03305H13.8505Z" fill="#C1C1C1"/>
<path id="Vector_2" d="M23.1377 3.03305C23.1659 2.88168 23.1833 2.72655 23.1833 2.5662C23.1833 1.14793 22.0681 0 20.6916 0H17.5196C16.1431 0 15.0273 1.14852 15.0273 2.5662C15.0273 2.72717 15.0458 2.88147 15.0736 3.03305H23.1377Z" fill="#C1C1C1"/>
<path id="Vector_3" d="M29 13.9999V7.04402C29 5.55872 27.8323 4.35547 26.3895 4.35547H2.60866C1.16831 4.35484 0 5.55872 0 7.04402V13.9999H29Z" fill="#000"/>
</g>
</g>
</g>
</svg>
