<svg width="38" height="25" viewBox="0 0 38 25" fill="none" xmlns="http://www.w3.org/2000/svg">
<g id="Group 415">
<path id="Vector" d="M37.4268 7.48782L33.9486 4.95149V1.65048C33.9486 1.28822 33.6686 1.00628 33.3089 1.00628H31.8696C31.5098 1.00628 31.2299 1.28823 31.2299 1.65048V2.93888L27.5119 0.24159C27.1119 -0.0805102 26.5124 -0.0805102 26.1124 0.24159L18.996 5.47492L18.2363 4.95148V1.65046C18.2363 1.2882 17.9563 1.00627 17.5966 1.00627H16.1974C15.8376 1.00627 15.5577 1.28821 15.5577 1.65046V2.93886L11.8397 0.241575C11.3999 -0.080525 10.8402 -0.080525 10.4402 0.241575L0.565177 7.48802C-0.0745661 7.93087 -0.194513 8.85672 0.32534 9.46073C0.765134 10.0243 1.56465 10.1049 2.16456 9.70224L11.2 3.14011L18.9961 8.81656L26.8322 3.14011L35.8677 9.70224C36.4274 10.1049 37.2671 10.0243 37.7069 9.46073C38.1866 8.81654 38.0666 7.93086 37.4269 7.48802L37.4268 7.48782Z" fill="#000"/>
<path id="Vector_2" d="M26.8313 4.91016L18.9952 10.5866L11.1591 4.91016L3.20312 10.6669V14.8135H34.7873V10.6669L26.8313 4.91016ZM12.9183 11.9151C12.9183 12.1165 12.7585 12.3178 12.5183 12.3178L9.79984 12.3175C9.59989 12.3175 9.39993 12.1566 9.39993 11.9148V9.53969C9.39993 9.33834 9.55973 9.137 9.79984 9.137H12.5183C12.7183 9.137 12.9183 9.29791 12.9183 9.53969V11.9151ZM28.5904 11.9151C28.5904 12.1165 28.4306 12.3178 28.1905 12.3178H25.472C25.272 12.3178 25.0721 12.1569 25.0721 11.9151V9.53997C25.0721 9.33862 25.2319 9.13728 25.472 9.13728H28.1908C28.3907 9.13728 28.5907 9.29819 28.5907 9.53997L28.5904 11.9151Z" fill="#000"/>
<path id="Vector_3" d="M3.20312 16.2656V24.3575C3.20312 24.7197 3.48312 25.0017 3.84287 25.0017H12.5585V19.2047C12.5585 19.0034 12.7183 18.802 12.9584 18.802H15.6769C15.8769 18.802 16.0768 18.963 16.0768 19.2047V25.002H28.2307V19.2047C28.2307 19.0034 28.3905 18.802 28.6306 18.802H31.3491C31.5491 18.802 31.749 18.963 31.749 19.2047V25.002H34.1878C34.5476 25.002 34.8276 24.72 34.8276 24.3578V16.2659L3.20312 16.2656ZM9.75984 21.5396C9.75984 21.741 9.60004 21.9423 9.35992 21.9423H6.64143C6.44147 21.9423 6.24151 21.7814 6.24151 21.5396V19.1645C6.24151 18.9631 6.40131 18.7618 6.64143 18.7618H9.40012C9.60007 18.7618 9.80003 18.9227 9.80003 19.1645L9.79975 21.5396H9.75984ZM25.432 21.5396C25.432 21.741 25.2722 21.9423 25.0321 21.9423H22.3136C22.1136 21.9423 21.9137 21.7814 21.9137 21.5396V19.1645C21.9137 18.9631 22.0735 18.7618 22.3136 18.7618H25.0321C25.232 18.7618 25.432 18.9227 25.432 19.1645V21.5396Z" fill="#000"/>
</g>
</svg>
